<svg width="348" height="343" viewBox="0 0 348 343" fill="none" xmlns="http://www.w3.org/2000/svg">
<path fill-rule="evenodd" clip-rule="evenodd" d="M117.785 53.5384C117.785 23.9699 141.755 0 171.323 0C200.892 0 224.862 23.97 224.862 53.5385V94.1313C193.898 103.362 171.323 132.053 171.323 166.016V176.631C171.323 210.594 193.898 239.285 224.862 248.515V289.108C224.862 318.676 200.892 342.646 171.323 342.646C141.755 342.646 117.785 318.676 117.785 289.108V224.862H53.5384C23.9699 224.862 2.34024e-06 200.892 0 171.323C0 141.755 23.97 117.785 53.5385 117.785L117.785 117.785V53.5384Z" fill="#33BDFE"/>
<path d="M198.092 167.784C198.092 140.17 220.478 117.784 248.092 117.784H298C325.614 117.784 348 140.17 348 167.784V174.861C348 202.475 325.614 224.861 298 224.861H248.092C220.478 224.861 198.092 202.475 198.092 174.861V167.784Z" fill="white"/>
</svg>
