<svg width="287" height="65" viewBox="0 0 287 65" fill="none" xmlns="http://www.w3.org/2000/svg">
<path fill-rule="evenodd" clip-rule="evenodd" d="M42.7734 18.4062C42.7734 14.8682 45.6416 12 49.1797 12C52.7178 12 55.5859 14.8682 55.5859 18.4062V23.4374C51.8537 24.7566 49.1797 28.316 49.1797 32.5C49.1797 36.684 51.8537 40.2434 55.5859 41.5626V46.5938C55.5859 50.1318 52.7178 53 49.1797 53C45.6416 53 42.7734 50.1318 42.7734 46.5938V38.9062H35.0859C31.5479 38.9062 28.6797 36.0381 28.6797 32.5C28.6797 28.9619 31.5479 26.0938 35.0859 26.0938L42.7734 26.0937V18.4062Z" fill="#0F2341"/>
<path d="M52.3828 32.5C52.3828 28.9619 55.251 26.0938 58.7891 26.0938H63.9141C67.4521 26.0938 70.3203 28.9619 70.3203 32.5C70.3203 36.0381 67.4521 38.9062 63.9141 38.9062H58.7891C55.251 38.9062 52.3828 36.0381 52.3828 32.5Z" fill="#33BDFE"/>
<path d="M122.272 23.124V42.5H119.724V28.052L113.284 42.5H111.492L105.024 28.024V42.5H102.476V23.124H105.22L112.388 39.14L119.556 23.124H122.272ZM140.594 34.24C140.594 34.7253 140.566 35.2387 140.51 35.78H128.246C128.339 37.292 128.852 38.4773 129.786 39.336C130.738 40.176 131.886 40.596 133.23 40.596C134.331 40.596 135.246 40.344 135.974 39.84C136.72 39.3173 137.243 38.6267 137.542 37.768H140.286C139.875 39.2427 139.054 40.4467 137.822 41.38C136.59 42.2947 135.059 42.752 133.23 42.752C131.774 42.752 130.467 42.4253 129.31 41.772C128.171 41.1187 127.275 40.1947 126.622 39C125.968 37.7867 125.642 36.3867 125.642 34.8C125.642 33.2133 125.959 31.8227 126.594 30.628C127.228 29.4333 128.115 28.5187 129.254 27.884C130.411 27.2307 131.736 26.904 133.23 26.904C134.686 26.904 135.974 27.2213 137.094 27.856C138.214 28.4907 139.072 29.368 139.67 30.488C140.286 31.5893 140.594 32.84 140.594 34.24ZM137.962 33.708C137.962 32.7373 137.747 31.9067 137.318 31.216C136.888 30.5067 136.3 29.9747 135.554 29.62C134.826 29.2467 134.014 29.06 133.118 29.06C131.83 29.06 130.728 29.4707 129.814 30.292C128.918 31.1133 128.404 32.252 128.274 33.708H137.962ZM143.005 34.772C143.005 33.204 143.322 31.832 143.957 30.656C144.591 29.4613 145.459 28.5373 146.561 27.884C147.681 27.2307 148.931 26.904 150.313 26.904C151.507 26.904 152.618 27.184 153.645 27.744C154.671 28.2853 155.455 29.004 155.997 29.9V21.78H158.573V42.5H155.997V39.616C155.493 40.5307 154.746 41.2867 153.757 41.884C152.767 42.4627 151.61 42.752 150.285 42.752C148.922 42.752 147.681 42.416 146.561 41.744C145.459 41.072 144.591 40.1293 143.957 38.916C143.322 37.7027 143.005 36.3213 143.005 34.772ZM155.997 34.8C155.997 33.6427 155.763 32.6347 155.297 31.776C154.83 30.9173 154.195 30.264 153.393 29.816C152.609 29.3493 151.741 29.116 150.789 29.116C149.837 29.116 148.969 29.34 148.185 29.788C147.401 30.236 146.775 30.8893 146.309 31.748C145.842 32.6067 145.609 33.6147 145.609 34.772C145.609 35.948 145.842 36.9747 146.309 37.852C146.775 38.7107 147.401 39.3733 148.185 39.84C148.969 40.288 149.837 40.512 150.789 40.512C151.741 40.512 152.609 40.288 153.393 39.84C154.195 39.3733 154.83 38.7107 155.297 37.852C155.763 36.9747 155.997 35.9573 155.997 34.8ZM164.195 24.664C163.709 24.664 163.299 24.496 162.963 24.16C162.627 23.824 162.459 23.4133 162.459 22.928C162.459 22.4427 162.627 22.032 162.963 21.696C163.299 21.36 163.709 21.192 164.195 21.192C164.661 21.192 165.053 21.36 165.371 21.696C165.707 22.032 165.875 22.4427 165.875 22.928C165.875 23.4133 165.707 23.824 165.371 24.16C165.053 24.496 164.661 24.664 164.195 24.664ZM165.427 27.156V42.5H162.879V27.156H165.427ZM182.397 29.06C182.043 28.4067 181.529 27.912 180.857 27.576C180.204 27.2213 179.429 27.044 178.533 27.044C176.984 27.044 175.743 27.5573 174.809 28.584C173.876 29.592 173.409 30.9453 173.409 32.644C173.409 34.4547 173.895 35.8733 174.865 36.9C175.855 37.908 177.208 38.412 178.925 38.412C180.101 38.412 181.091 38.1133 181.893 37.516C182.715 36.9187 183.312 36.06 183.685 34.94H177.609V31.412H188.025V35.864C187.671 37.0587 187.064 38.1693 186.205 39.196C185.365 40.2227 184.292 41.0533 182.985 41.688C181.679 42.3227 180.204 42.64 178.561 42.64C176.62 42.64 174.884 42.22 173.353 41.38C171.841 40.5213 170.656 39.336 169.797 37.824C168.957 36.312 168.537 34.5853 168.537 32.644C168.537 30.7027 168.957 28.976 169.797 27.464C170.656 25.9333 171.841 24.748 173.353 23.908C174.865 23.0493 176.592 22.62 178.533 22.62C180.885 22.62 182.864 23.1893 184.469 24.328C186.093 25.4667 187.167 27.044 187.689 29.06H182.397ZM206.105 26.876V42.5H201.317V40.372C200.832 41.0627 200.169 41.6227 199.329 42.052C198.508 42.4627 197.593 42.668 196.585 42.668C195.391 42.668 194.336 42.4067 193.421 41.884C192.507 41.3427 191.797 40.568 191.293 39.56C190.789 38.552 190.537 37.3667 190.537 36.004V26.876H195.297V35.36C195.297 36.4053 195.568 37.2173 196.109 37.796C196.651 38.3747 197.379 38.664 198.293 38.664C199.227 38.664 199.964 38.3747 200.505 37.796C201.047 37.2173 201.317 36.4053 201.317 35.36V26.876H206.105ZM208.593 34.66C208.593 33.0547 208.891 31.6453 209.489 30.432C210.105 29.2187 210.935 28.2853 211.981 27.632C213.026 26.9787 214.193 26.652 215.481 26.652C216.582 26.652 217.543 26.876 218.365 27.324C219.205 27.772 219.849 28.36 220.297 29.088V26.876H225.085V42.5H220.297V40.288C219.83 41.016 219.177 41.604 218.337 42.052C217.515 42.5 216.554 42.724 215.453 42.724C214.183 42.724 213.026 42.3973 211.981 41.744C210.935 41.072 210.105 40.1293 209.489 38.916C208.891 37.684 208.593 36.2653 208.593 34.66ZM220.297 34.688C220.297 33.4933 219.961 32.5507 219.289 31.86C218.635 31.1693 217.833 30.824 216.881 30.824C215.929 30.824 215.117 31.1693 214.445 31.86C213.791 32.532 213.465 33.4653 213.465 34.66C213.465 35.8547 213.791 36.8067 214.445 37.516C215.117 38.2067 215.929 38.552 216.881 38.552C217.833 38.552 218.635 38.2067 219.289 37.516C219.961 36.8253 220.297 35.8827 220.297 34.688ZM233.337 29.48C233.897 28.6213 234.597 27.9493 235.437 27.464C236.277 26.96 237.21 26.708 238.237 26.708V31.776H236.921C235.726 31.776 234.83 32.0373 234.233 32.56C233.635 33.064 233.337 33.96 233.337 35.248V42.5H228.549V26.876H233.337V29.48ZM239.573 34.66C239.573 33.0547 239.872 31.6453 240.469 30.432C241.085 29.2187 241.916 28.2853 242.961 27.632C244.006 26.9787 245.173 26.652 246.461 26.652C247.488 26.652 248.421 26.8667 249.261 27.296C250.12 27.7253 250.792 28.304 251.277 29.032V21.78H256.065V42.5H251.277V40.26C250.829 41.0067 250.185 41.604 249.345 42.052C248.524 42.5 247.562 42.724 246.461 42.724C245.173 42.724 244.006 42.3973 242.961 41.744C241.916 41.072 241.085 40.1293 240.469 38.916C239.872 37.684 239.573 36.2653 239.573 34.66ZM251.277 34.688C251.277 33.4933 250.941 32.5507 250.269 31.86C249.616 31.1693 248.813 30.824 247.861 30.824C246.909 30.824 246.097 31.1693 245.425 31.86C244.772 32.532 244.445 33.4653 244.445 34.66C244.445 35.8547 244.772 36.8067 245.425 37.516C246.097 38.2067 246.909 38.552 247.861 38.552C248.813 38.552 249.616 38.2067 250.269 37.516C250.941 36.8253 251.277 35.8827 251.277 34.688Z" fill="#202226"/>
</svg>
