<svg width="30" height="30" viewBox="0 0 120 120" fill="none" xmlns="http://www.w3.org/2000/svg">
<circle cx="60" cy="60" r="60" fill="#0F2341"/>
<path fill-rule="evenodd" clip-rule="evenodd" d="M45.4617 28.8461C45.4617 21.1991 51.6609 15 59.3079 15C66.9549 15 73.154 21.1991 73.154 28.8462V39.7204C65.0874 42.5716 59.308 50.2648 59.308 59.3078C59.308 68.3508 65.0874 76.0439 73.154 78.8952V89.7692C73.154 97.4163 66.9549 103.615 59.3079 103.615C51.6609 103.615 45.4617 97.4162 45.4617 89.7692V73.1537H28.8461C21.1991 73.1537 15 66.9546 15 59.3076C15 51.6605 21.1991 45.4614 28.8462 45.4614L45.4617 45.4614V28.8461Z" fill="#33BDFE"/>
<path d="M66.2297 59.3076C66.2297 51.6606 72.4289 45.4614 80.0759 45.4614H91.1528C98.7998 45.4614 104.999 51.6606 104.999 59.3076V59.3076C104.999 66.9546 98.7998 73.1537 91.1528 73.1537H80.0759C72.4289 73.1537 66.2297 66.9546 66.2297 59.3076V59.3076Z" fill="white"/>
</svg>
